PathFileType	4	(X/Y/Z)	s08c0102.trc
DataRate	CameraRate	NumFrames	NumMarkers	Units	OrigDataRate	OrigDataStartFrame	OrigNumFrames
200	200	4	50	mm	200	250	2000
Frame#	Time	racr			lacr			c7			jug			rlel			rdr			llel			ldr			s2			lic			ric			lasi			rasi			rpsi			lpsi			rgt			lgt			rth1			rth2			rth3			rth4			rlfc			rmfc			rsh1			rsh2			rsh3			rsh4			rlmal			rmmal			rcal			rtoe			rmt5			lth1			lth2			lth4			lth3			llfc			lmfc			llmal			lmmal			lcal			lmt5			lsh1			lsh2			lsh3			lsh4			ltoe			SBIKE			LBIKE			RBIKE			
		X1	Y1	Z1	X2	Y2	Z2	X3	Y3	Z3	X4	Y4	Z4	X5	Y5	Z5	X6	Y6	Z6	X7	Y7	Z7	X8	Y8	Z8	X9	Y9	Z9	X10	Y10	Z10	X11	Y11	Z11	X12	Y12	Z12	X13	Y13	Z13	X14	Y14	Z14	X15	Y15	Z15	X16	Y16	Z16	X17	Y17	Z17	X18	Y18	Z18	X19	Y19	Z19	X20	Y20	Z20	X21	Y21	Z21	X22	Y22	Z22	X23	Y23	Z23	X24	Y24	Z24	X25	Y25	Z25	X26	Y26	Z26	X27	Y27	Z27	X28	Y28	Z28	X29	Y29	Z29	X30	Y30	Z30	X31	Y31	Z31	X32	Y32	Z32	X33	Y33	Z33	X34	Y34	Z34	X35	Y35	Z35	X36	Y36	Z36	X37	Y37	Z37	X38	Y38	Z38	X39	Y39	Z39	X40	Y40	Z40	X41	Y41	Z41	X42	Y42	Z42	X43	Y43	Z43	X44	Y44	Z44	X45	Y45	Z45	X46	Y46	Z46	X47	Y47	Z47	X48	Y48	Z48	X49	Y49	Z49	X50	Y50	Z50	
250	1.2500	547.855774	1349.943069	-56.294175	571.274007	1355.387695	-440.038550	545.348456	1429.443767	-243.343161	521.964528	1276.128523	-235.052593	599.151097	1105.978087	19.578671	805.513950	891.491773	-61.686344	606.371834	1098.078222	-504.415653	804.827965	893.515542	-426.188177	-1.964440	1205.868144	-248.594333	169.648391	1162.660621	-388.644326	155.136951	1204.316752	-83.198575	182.451973	1107.570702	-355.501948	170.805516	1149.359645	-115.064699	29.126317	1249.029600	-199.877433	39.999717	1241.175832	-299.244774	71.075108	1119.222221	-35.315327	75.912840	1058.611658	-419.952786	214.085014	1035.701840	-33.660359	301.592896	1020.894270	-33.878714	368.449758	965.243744	-35.751658	316.401047	1052.909574	-46.570966	469.795173	896.194985	-55.669917	446.398475	892.135911	-190.937055	391.997399	792.492570	-28.313468	370.506604	707.113487	-49.399526	310.444017	645.427537	-56.596212	395.484802	699.314506	-81.900725	245.928472	546.317661	-70.379415	263.845993	568.962367	-156.498737	163.508625	518.035872	-112.997673	460.309262	509.322389	-110.543457	372.699662	478.361441	-43.350569	101.003517	925.916231	-435.054139	135.235431	845.720981	-428.928728	170.033862	850.894155	-417.709016	123.306263	757.473755	-423.223203	136.313106	632.071841	-397.213757	129.360911	611.555862	-297.083252	57.727223	217.923321	-396.310761	78.826000	242.069059	-311.095756	-4.431959	176.441701	-356.829722	208.807300	165.750738	-419.969286	106.541190	507.333809	-426.088588	111.414386	423.392584	-406.832620	77.627929	341.856817	-409.569771	130.733391	424.321208	-372.963913	282.339478	212.812137	-351.889718	-139.534605	939.703342	-229.104234	17.862232	80.115542	-427.576430	16.353169	79.430643	-29.934879	
251	1.2550	547.797239	1349.988540	-56.288355	571.246521	1355.495981	-440.049401	545.251062	1429.437989	-243.323584	521.894631	1276.120634	-234.966126	599.156614	1106.009398	19.525854	805.499614	891.513864	-61.721885	606.426789	1098.134021	-504.344006	804.863292	893.542598	-426.198278	-2.059615	1205.863344	-248.645067	169.604430	1162.570373	-388.671395	155.076159	1204.310092	-83.228626	182.408367	1107.509655	-355.503045	170.746131	1149.318393	-115.075622	29.067202	1249.025494	-199.943549	39.890097	1241.161134	-299.296528	70.993437	1119.254847	-35.323901	75.846292	1058.572362	-419.975190	214.013991	1035.729110	-33.585248	301.503441	1020.962874	-33.755485	368.385904	965.285977	-35.646351	316.615158	1052.900437	-46.733469	469.725100	896.234571	-55.543341	446.372345	892.173342	-190.800505	391.896934	792.504968	-28.207094	370.376189	707.184345	-49.300070	310.278178	645.534595	-56.566596	395.347147	699.369290	-81.838668	245.749179	546.451617	-70.375075	263.702618	569.058377	-156.480910	163.314889	518.158808	-113.002462	460.110797	509.420320	-110.543394	372.491639	478.478744	-43.362869	101.003438	925.980620	-435.142477	135.305782	845.731582	-428.936415	170.104751	850.922345	-417.745011	123.426624	757.481891	-423.233171	136.456294	632.055575	-397.246008	129.546180	611.551253	-297.133215	57.990527	217.880355	-396.287075	79.057838	242.023338	-311.108027	-4.160938	176.485644	-356.825566	209.007696	165.632577	-419.986631	106.710480	507.316827	-426.104578	111.634583	423.391823	-406.850035	77.838898	341.850971	-409.577237	130.949558	424.333661	-373.013588	282.592715	212.671093	-351.909434	-139.534241	939.702464	-229.100630	17.867171	80.111949	-427.566115	16.349435	79.411421	-29.976354	
252	1.2600	547.795585	1350.025977	-56.291994	571.226975	1355.641071	-440.042543	545.159540	1429.455283	-243.327522	521.837958	1276.115776	-234.928467	599.159762	1106.040321	19.494408	805.544957	891.546969	-61.701993	606.516041	1098.208308	-504.267027	804.873871	893.572694	-426.197709	-2.154260	1205.900842	-248.631170	169.571799	1162.501355	-388.722970	155.017467	1204.281706	-83.234935	182.350857	1107.452514	-355.504234	170.709106	1149.299879	-115.071764	28.993430	1249.007350	-199.997955	39.813084	1241.105835	-299.390470	70.912898	1119.300722	-35.326140	75.777510	1058.547571	-420.011436	213.922303	1035.764172	-33.535656	301.443724	1020.963948	-33.675721	368.329954	965.311722	-35.512597	316.536255	1052.943200	-46.647637	469.653911	896.266523	-55.399626	446.340490	892.202876	-190.666198	391.780544	792.553498	-28.106682	370.224681	707.242915	-49.237856	310.127571	645.636408	-56.524925	395.220187	699.411006	-81.765453	245.566987	546.604371	-70.364973	263.556732	569.179903	-156.498036	163.100794	518.298464	-113.013381	459.922163	509.470865	-110.536797	372.282847	478.563823	-43.369146	101.021464	925.986488	-435.141686	135.347538	845.760819	-428.959767	170.151457	850.951493	-417.771058	123.535283	757.516682	-423.250686	136.568536	632.102527	-397.291379	129.708694	611.558775	-297.172856	58.289074	217.707731	-396.011383	79.331853	242.012672	-311.118321	-3.906595	176.504502	-356.841840	209.255614	165.510869	-419.994289	106.854289	507.328602	-426.163753	111.812188	423.390266	-406.888243	78.039013	341.824011	-409.566739	131.135182	424.368880	-373.033935	282.829210	212.523268	-351.920921	-139.537221	939.703791	-229.096355	17.862186	80.099585	-427.575347	16.362587	79.419555	-29.966684	
253	1.2650	547.780844	1350.062388	-56.347447	571.251505	1355.698832	-440.028719	545.049561	1429.500060	-243.317920	521.767034	1276.086557	-234.874053	599.136423	1106.056812	19.448575	805.523881	891.577287	-61.732871	606.590302	1098.274395	-504.215541	804.914551	893.614508	-426.214851	-2.219482	1205.884480	-248.666844	169.517291	1162.434360	-388.791335	154.966384	1204.259298	-83.241600	182.274653	1107.394195	-355.477798	170.648635	1149.288731	-115.063770	28.921044	1249.007593	-200.033258	39.735439	1241.074640	-299.525951	70.815483	1119.299583	-35.353464	75.732274	1058.512552	-420.010023	213.846955	1035.778288	-33.457728	301.360384	1020.992198	-33.576896	368.242447	965.361862	-35.386446	316.481493	1052.975531	-46.531986	469.592154	896.324123	-55.248702	446.294187	892.256173	-190.553485	391.696645	792.607654	-27.981732	370.070784	707.310685	-49.147834	309.980508	645.738770	-56.500942	395.097713	699.470953	-81.699914	245.421447	546.990044	-69.908199	263.369432	569.420734	-156.469994	162.883530	518.484162	-112.975407	459.739124	509.570039	-110.528722	372.053664	478.655185	-43.387541	101.067176	925.871760	-434.958062	135.389193	845.774133	-428.970710	170.188073	851.001455	-417.814575	123.601096	757.535546	-423.279612	136.652833	632.100708	-397.343058	129.837333	611.555473	-297.220391	58.532980	217.720270	-396.011809	79.597861	242.032808	-311.177492	-3.657802	176.502559	-356.877503	209.522667	165.367862	-420.001843	106.980704	507.307993	-426.205689	111.990867	423.397365	-406.933339	78.239132	341.798563	-409.557570	131.289733	424.367965	-373.080835	283.084602	212.369781	-351.960485	-139.543685	939.700224	-229.093026	17.868727	80.098502	-427.578217	16.384283	79.451571	-29.934110	
